<svg width="229" height="106" viewBox="0 0 229 106" fill="none" xmlns="http://www.w3.org/2000/svg">
<g clip-path="url(#clip0)">
<g clip-path="url(#clip1)">
<path d="M76.5805 33.2122L73.6922 30.3237L53.4719 50.5442L56.3602 53.4327L76.5805 33.2122Z" fill="#41B883"/>
<path d="M56.3602 53.4327L53.4719 50.5442L33.3476 30.4197L30.459 33.308L50.5838 53.4327L30.459 73.5585L33.3476 76.4468L53.4719 56.3198L73.6922 76.5428L76.5805 73.654L56.3602 53.4327Z" fill="#425661"/>
<mask id="mask0" mask-type="alpha" maskUnits="userSpaceOnUse" x="-92" y="-90" width="215" height="287">
<path fill-rule="evenodd" clip-rule="evenodd" d="M-22.5816 -18.2935L48.7066 -89.5816L121.16 -17.1285L50.5781 53.4531L122.66 125.535L51.4531 196.741L-20.6284 124.66L-20.71 124.741L-92 53.4513L-21.4184 -17.1303L-22.5816 -18.2935Z" fill="white"/>
</mask>
<g mask="url(#mask0)">
<path d="M53.5 2.43555C25.295 2.43555 2.43555 25.2952 2.43555 53.5004C2.43555 81.705 25.295 104.564 53.5 104.564C81.705 104.564 104.564 81.705 104.564 53.5004C104.564 25.2952 81.705 2.43555 53.5 2.43555ZM53.5 100.479C27.5966 100.479 6.5207 79.4032 6.5207 53.5004C6.5207 27.597 27.5966 6.5207 53.5 6.5207C79.4032 6.5207 100.48 27.5543 100.479 53.5004C100.479 79.4462 79.4032 100.479 53.5 100.479Z" fill="#425661"/>
</g>
</g>
<path d="M98.6562 43.1172C98.013 42.9987 97.3275 42.9395 96.5996 42.9395C94.7038 42.9395 93.0957 43.4727 91.7754 44.5391C90.472 45.5885 89.541 47.1204 88.9824 49.1348V68H85.9609V40.5273H88.9316L88.9824 44.8945C90.5905 41.6445 93.1719 40.0195 96.7266 40.0195C97.5729 40.0195 98.2415 40.1296 98.7324 40.3496L98.6562 43.1172ZM101.297 53.8574C101.297 51.2168 101.805 48.8385 102.82 46.7227C103.853 44.6068 105.3 42.9648 107.162 41.7969C109.041 40.612 111.165 40.0195 113.535 40.0195C117.191 40.0195 120.154 41.306 122.422 43.8789C124.69 46.4349 125.824 49.8288 125.824 54.0605V54.6953C125.824 57.3529 125.308 59.748 124.275 61.8809C123.26 63.9967 121.821 65.6302 119.959 66.7812C118.097 67.9323 115.973 68.5078 113.586 68.5078C109.947 68.5078 106.984 67.2298 104.699 64.6738C102.431 62.1009 101.297 58.6986 101.297 54.4668V53.8574ZM104.344 54.6953C104.344 57.9792 105.19 60.679 106.883 62.7949C108.592 64.8939 110.827 65.9434 113.586 65.9434C116.328 65.9434 118.546 64.8939 120.238 62.7949C121.948 60.679 122.803 57.8945 122.803 54.4414V53.8574C122.803 51.7585 122.413 49.8372 121.635 48.0938C120.856 46.3503 119.764 45.0046 118.359 44.0566C116.954 43.0918 115.346 42.6094 113.535 42.6094C110.827 42.6094 108.618 43.6758 106.908 45.8086C105.199 47.9245 104.344 50.7005 104.344 54.1367V54.6953ZM148.574 61.0176C148.574 59.5111 147.965 58.3008 146.746 57.3867C145.544 56.4727 143.725 55.7617 141.287 55.2539C138.85 54.7292 136.954 54.1367 135.6 53.4766C134.262 52.7995 133.264 51.9785 132.604 51.0137C131.96 50.0488 131.639 48.8809 131.639 47.5098C131.639 45.3431 132.544 43.5573 134.355 42.1523C136.167 40.7305 138.486 40.0195 141.312 40.0195C144.376 40.0195 146.831 40.7812 148.676 42.3047C150.538 43.8112 151.469 45.7832 151.469 48.2207H148.422C148.422 46.6126 147.745 45.2754 146.391 44.209C145.053 43.1426 143.361 42.6094 141.312 42.6094C139.315 42.6094 137.707 43.0579 136.488 43.9551C135.286 44.8353 134.686 45.9863 134.686 47.4082C134.686 48.7793 135.185 49.8457 136.184 50.6074C137.199 51.3522 139.036 52.0378 141.693 52.6641C144.368 53.2904 146.365 53.959 147.686 54.6699C149.023 55.3809 150.013 56.2357 150.656 57.2344C151.299 58.2331 151.621 59.4434 151.621 60.8652C151.621 63.1842 150.682 65.0378 148.803 66.4258C146.941 67.8138 144.503 68.5078 141.49 68.5078C138.291 68.5078 135.693 67.7376 133.695 66.1973C131.715 64.64 130.725 62.6764 130.725 60.3066H133.771C133.89 62.084 134.635 63.472 136.006 64.4707C137.394 65.4525 139.222 65.9434 141.49 65.9434C143.606 65.9434 145.316 65.4779 146.619 64.5469C147.923 63.6159 148.574 62.4395 148.574 61.0176ZM174.93 61.0176C174.93 59.5111 174.32 58.3008 173.102 57.3867C171.9 56.4727 170.08 55.7617 167.643 55.2539C165.205 54.7292 163.309 54.1367 161.955 53.4766C160.618 52.7995 159.619 51.9785 158.959 51.0137C158.316 50.0488 157.994 48.8809 157.994 47.5098C157.994 45.3431 158.9 43.5573 160.711 42.1523C162.522 40.7305 164.841 40.0195 167.668 40.0195C170.732 40.0195 173.186 40.7812 175.031 42.3047C176.893 43.8112 177.824 45.7832 177.824 48.2207H174.777C174.777 46.6126 174.1 45.2754 172.746 44.209C171.409 43.1426 169.716 42.6094 167.668 42.6094C165.671 42.6094 164.062 43.0579 162.844 43.9551C161.642 44.8353 161.041 45.9863 161.041 47.4082C161.041 48.7793 161.54 49.8457 162.539 50.6074C163.555 51.3522 165.391 52.0378 168.049 52.6641C170.723 53.2904 172.721 53.959 174.041 54.6699C175.378 55.3809 176.368 56.2357 177.012 57.2344C177.655 58.2331 177.977 59.4434 177.977 60.8652C177.977 63.1842 177.037 65.0378 175.158 66.4258C173.296 67.8138 170.859 68.5078 167.846 68.5078C164.646 68.5078 162.048 67.7376 160.051 66.1973C158.07 64.64 157.08 62.6764 157.08 60.3066H160.127C160.245 62.084 160.99 63.472 162.361 64.4707C163.749 65.4525 165.577 65.9434 167.846 65.9434C169.962 65.9434 171.671 65.4779 172.975 64.5469C174.278 63.6159 174.93 62.4395 174.93 61.0176Z" fill="#425661"/>
<path d="M211.139 32.0312V57.2695C211.122 59.7578 210.572 61.9245 209.488 63.7695C208.405 65.6146 206.873 67.0365 204.893 68.0352C202.929 69.0169 200.669 69.5078 198.113 69.5078C194.22 69.5078 191.097 68.4499 188.744 66.334C186.408 64.2012 185.198 61.2559 185.113 57.498V32.0312H188.211V57.041C188.211 60.1556 189.1 62.5762 190.877 64.3027C192.654 66.0124 195.066 66.8672 198.113 66.8672C201.16 66.8672 203.564 66.0039 205.324 64.2773C207.102 62.5508 207.99 60.1471 207.99 57.0664V32.0312H211.139ZM223.656 69H220.533V32.0312H223.656V69Z" fill="#425661"/>
</g>
<defs>
<clipPath id="clip0">
<rect width="229" height="106" fill="white"/>
</clipPath>
<clipPath id="clip1">
<rect width="105" height="105" fill="white" transform="translate(1 1)"/>
</clipPath>
</defs>
</svg>
