<svg width="258" height="106" viewBox="0 0 258 106" fill="none" xmlns="http://www.w3.org/2000/svg">
<g clip-path="url(#clip0)">
<path d="M76.5805 33.2122L73.6922 30.3237L53.4719 50.5442L56.3602 53.4327L76.5805 33.2122Z" fill="#DD0031"/>
<path d="M56.3602 53.4327L53.4719 50.5442L33.3476 30.4197L30.459 33.308L50.5838 53.4327L30.459 73.5585L33.3476 76.4468L53.4719 56.3198L73.6922 76.5428L76.5805 73.654L56.3602 53.4327Z" fill="#425661"/>
<mask id="mask0" mask-type="alpha" maskUnits="userSpaceOnUse" x="-92" y="-90" width="215" height="287">
<path fill-rule="evenodd" clip-rule="evenodd" d="M-22.5816 -18.2934L48.7066 -89.5816L121.16 -17.1285L50.5781 53.4531L122.66 125.535L51.4531 196.741L-20.6284 124.66L-20.71 124.741L-92 53.4513L-21.4184 -17.1303L-22.5816 -18.2934Z" fill="white"/>
</mask>
<g mask="url(#mask0)">
<path d="M53.5 2.43555C25.295 2.43555 2.43555 25.2952 2.43555 53.5004C2.43555 81.705 25.295 104.564 53.5 104.564C81.705 104.564 104.564 81.705 104.564 53.5004C104.564 25.2952 81.705 2.43555 53.5 2.43555ZM53.5 100.479C27.5966 100.479 6.5207 79.4032 6.5207 53.5004C6.5207 27.597 27.5966 6.5207 53.5 6.5207C79.4032 6.5207 100.48 27.5543 100.479 53.5004C100.479 79.4462 79.4032 100.479 53.5 100.479Z" fill="#425661"/>
</g>
</g>
<path d="M103.303 68C102.998 67.1367 102.803 65.8587 102.719 64.166C101.652 65.554 100.29 66.6289 98.6309 67.3906C96.9889 68.1354 95.2454 68.5078 93.4004 68.5078C90.7598 68.5078 88.6185 67.7715 86.9766 66.2988C85.3516 64.8262 84.5391 62.9642 84.5391 60.7129C84.5391 58.0384 85.6478 55.9225 87.8652 54.3652C90.0996 52.8079 93.2057 52.0293 97.1836 52.0293H102.693V48.9062C102.693 46.9427 102.084 45.4023 100.865 44.2852C99.6634 43.151 97.903 42.584 95.584 42.584C93.4681 42.584 91.7161 43.1257 90.3281 44.209C88.9401 45.2923 88.2461 46.5957 88.2461 48.1191L85.1992 48.0938C85.1992 45.9102 86.2148 44.0228 88.2461 42.4316C90.2773 40.8236 92.7741 40.0195 95.7363 40.0195C98.8001 40.0195 101.212 40.7897 102.973 42.3301C104.75 43.8535 105.664 45.9863 105.715 48.7285V61.7285C105.715 64.3861 105.994 66.375 106.553 67.6953V68H103.303ZM93.7559 65.8164C95.7871 65.8164 97.5983 65.3255 99.1895 64.3438C100.798 63.362 101.965 62.0501 102.693 60.4082V54.3652H97.2598C94.2298 54.3991 91.86 54.9577 90.1504 56.041C88.4408 57.1074 87.5859 58.5801 87.5859 60.459C87.5859 61.9993 88.153 63.2773 89.2871 64.293C90.4382 65.3086 91.9277 65.8164 93.7559 65.8164ZM116.734 40.5273L116.836 45.2246C117.868 43.5319 119.155 42.2454 120.695 41.3652C122.236 40.4681 123.937 40.0195 125.799 40.0195C128.744 40.0195 130.936 40.849 132.375 42.5078C133.814 44.1667 134.542 46.6549 134.559 49.9727V68H131.537V49.9473C131.52 47.4928 130.995 45.6647 129.963 44.4629C128.947 43.2611 127.314 42.6602 125.062 42.6602C123.184 42.6602 121.516 43.2526 120.061 44.4375C118.622 45.6055 117.555 47.1882 116.861 49.1855V68H113.84V40.5273H116.734ZM141.211 54.0098C141.211 49.7103 142.159 46.3079 144.055 43.8027C145.967 41.2806 148.557 40.0195 151.824 40.0195C155.565 40.0195 158.409 41.5091 160.355 44.4883L160.508 40.5273H163.352V67.4414C163.352 70.9792 162.361 73.7806 160.381 75.8457C158.4 77.9108 155.717 78.9434 152.332 78.9434C150.419 78.9434 148.591 78.5117 146.848 77.6484C145.121 76.8021 143.758 75.668 142.76 74.2461L144.461 72.418C146.611 75.0586 149.167 76.3789 152.129 76.3789C154.668 76.3789 156.648 75.6257 158.07 74.1191C159.492 72.6296 160.229 70.556 160.279 67.8984V64.4453C158.333 67.1536 155.497 68.5078 151.773 68.5078C148.591 68.5078 146.035 67.2383 144.105 64.6992C142.176 62.1602 141.211 58.7324 141.211 54.416V54.0098ZM144.283 54.543C144.283 58.0469 144.986 60.8145 146.391 62.8457C147.796 64.86 149.776 65.8672 152.332 65.8672C156.073 65.8672 158.722 64.1914 160.279 60.8398V48.0684C159.568 46.3079 158.544 44.9707 157.207 44.0566C155.87 43.1257 154.262 42.6602 152.383 42.6602C149.827 42.6602 147.838 43.6673 146.416 45.6816C144.994 47.679 144.283 50.6328 144.283 54.543ZM188.945 64.5215C187.117 67.179 184.197 68.5078 180.186 68.5078C177.257 68.5078 175.031 67.6615 173.508 65.9688C171.984 64.2591 171.206 61.737 171.172 58.4023V40.5273H174.193V58.0215C174.193 63.252 176.309 65.8672 180.541 65.8672C184.942 65.8672 187.727 64.0475 188.895 60.4082V40.5273H191.941V68H188.996L188.945 64.5215ZM203.266 68H200.219V29H203.266V68ZM228.885 68C228.58 67.1367 228.385 65.8587 228.301 64.166C227.234 65.554 225.872 66.6289 224.213 67.3906C222.571 68.1354 220.827 68.5078 218.982 68.5078C216.342 68.5078 214.201 67.7715 212.559 66.2988C210.934 64.8262 210.121 62.9642 210.121 60.7129C210.121 58.0384 211.23 55.9225 213.447 54.3652C215.682 52.8079 218.788 52.0293 222.766 52.0293H228.275V48.9062C228.275 46.9427 227.666 45.4023 226.447 44.2852C225.245 43.151 223.485 42.584 221.166 42.584C219.05 42.584 217.298 43.1257 215.91 44.209C214.522 45.2923 213.828 46.5957 213.828 48.1191L210.781 48.0938C210.781 45.9102 211.797 44.0228 213.828 42.4316C215.859 40.8236 218.356 40.0195 221.318 40.0195C224.382 40.0195 226.794 40.7897 228.555 42.3301C230.332 43.8535 231.246 45.9863 231.297 48.7285V61.7285C231.297 64.3861 231.576 66.375 232.135 67.6953V68H228.885ZM219.338 65.8164C221.369 65.8164 223.18 65.3255 224.771 64.3438C226.38 63.362 227.548 62.0501 228.275 60.4082V54.3652H222.842C219.812 54.3991 217.442 54.9577 215.732 56.041C214.023 57.1074 213.168 58.5801 213.168 60.459C213.168 61.9993 213.735 63.2773 214.869 64.293C216.02 65.3086 217.51 65.8164 219.338 65.8164ZM252.117 43.1172C251.474 42.9987 250.788 42.9395 250.061 42.9395C248.165 42.9395 246.557 43.4727 245.236 44.5391C243.933 45.5885 243.002 47.1204 242.443 49.1348V68H239.422V40.5273H242.393L242.443 44.8945C244.051 41.6445 246.633 40.0195 250.188 40.0195C251.034 40.0195 251.702 40.1296 252.193 40.3496L252.117 43.1172Z" fill="#425661"/>
<defs>
<clipPath id="clip0">
<rect width="105" height="105" fill="white" transform="translate(1 1)"/>
</clipPath>
</defs>
</svg>
