<svg width="229" height="106" viewBox="0 0 229 106" fill="none" xmlns="http://www.w3.org/2000/svg">
<g clip-path="url(#clip0)">
<path d="M76.5805 33.2123L73.6922 30.3237L53.4719 50.5442L56.3602 53.4327L76.5805 33.2123Z" fill="#41B883"/>
<path d="M56.3602 53.4327L53.4719 50.5442L33.3476 30.4197L30.459 33.308L50.5838 53.4327L30.459 73.5585L33.3476 76.4468L53.4719 56.3198L73.6922 76.5428L76.5805 73.654L56.3602 53.4327Z" fill="#425661"/>
<mask id="mask0" mask-type="alpha" maskUnits="userSpaceOnUse" x="-92" y="-90" width="215" height="287">
<path fill-rule="evenodd" clip-rule="evenodd" d="M-22.5816 -18.2935L48.7066 -89.5816L121.16 -17.1285L50.5781 53.4531L122.66 125.535L51.4531 196.741L-20.6284 124.66L-20.71 124.741L-92 53.4513L-21.4184 -17.1303L-22.5816 -18.2935Z" fill="white"/>
</mask>
<g mask="url(#mask0)">
<path d="M53.5 2.43555C25.295 2.43555 2.43555 25.2952 2.43555 53.5004C2.43555 81.705 25.295 104.564 53.5 104.564C81.705 104.564 104.564 81.705 104.564 53.5004C104.564 25.2952 81.705 2.43555 53.5 2.43555ZM53.5 100.479C27.5966 100.479 6.5207 79.4032 6.5207 53.5004C6.5207 27.597 27.5966 6.5207 53.5 6.5207C79.4032 6.5207 100.48 27.5543 100.479 53.5004C100.479 79.4462 79.4032 100.479 53.5 100.479Z" fill="#425661"/>
</g>
</g>
<path d="M94.5176 63.8105L102.871 40.5273H105.994L95.7363 68H93.2734L82.9648 40.5273H86.0879L94.5176 63.8105ZM128.668 64.5215C126.84 67.179 123.92 68.5078 119.908 68.5078C116.98 68.5078 114.754 67.6615 113.23 65.9688C111.707 64.2591 110.928 61.737 110.895 58.4023V40.5273H113.916V58.0215C113.916 63.252 116.032 65.8672 120.264 65.8672C124.665 65.8672 127.449 64.0475 128.617 60.4082V40.5273H131.664V68H128.719L128.668 64.5215ZM150.225 68.5078C147.889 68.5078 145.773 67.9323 143.877 66.7812C141.998 65.6302 140.534 64.0306 139.484 61.9824C138.435 59.9173 137.91 57.6068 137.91 55.0508V53.959C137.91 51.3184 138.418 48.9401 139.434 46.8242C140.466 44.7083 141.896 43.0495 143.725 41.8477C145.553 40.6289 147.533 40.0195 149.666 40.0195C153.001 40.0195 155.641 41.1621 157.588 43.4473C159.551 45.7155 160.533 48.8216 160.533 52.7656V54.4668H140.932V55.0508C140.932 58.1654 141.82 60.7637 143.598 62.8457C145.392 64.9108 147.643 65.9434 150.352 65.9434C151.977 65.9434 153.407 65.6471 154.643 65.0547C155.895 64.4622 157.029 63.5143 158.045 62.2109L159.949 63.6582C157.715 66.8913 154.473 68.5078 150.225 68.5078ZM149.666 42.6094C147.381 42.6094 145.451 43.4473 143.877 45.123C142.32 46.7988 141.372 49.0501 141.033 51.877H157.512V51.5469C157.427 48.9062 156.674 46.7565 155.252 45.0977C153.83 43.4388 151.968 42.6094 149.666 42.6094Z" fill="#425661"/>
<defs>
<clipPath id="clip0">
<rect width="105" height="105" fill="white" transform="translate(1 1)"/>
</clipPath>
</defs>
</svg>
