<svg width="229" height="106" viewBox="0 0 229 106" fill="none" xmlns="http://www.w3.org/2000/svg">
<g clip-path="url(#clip0)">
<path d="M76.5805 33.2122L73.6922 30.3237L53.4719 50.5442L56.3602 53.4327L76.5805 33.2122Z" fill="#61DAFB"/>
<path d="M56.3602 53.4327L53.4719 50.5442L33.3476 30.4197L30.459 33.308L50.5838 53.4327L30.459 73.5585L33.3476 76.4468L53.4719 56.3198L73.6922 76.5428L76.5805 73.654L56.3602 53.4327Z" fill="#425661"/>
<mask id="mask0" mask-type="alpha" maskUnits="userSpaceOnUse" x="-92" y="-90" width="215" height="287">
<path fill-rule="evenodd" clip-rule="evenodd" d="M-22.5816 -18.2935L48.7066 -89.5816L121.16 -17.1285L50.5781 53.4531L122.66 125.535L51.4531 196.741L-20.6284 124.66L-20.71 124.741L-92 53.4513L-21.4184 -17.1303L-22.5816 -18.2935Z" fill="white"/>
</mask>
<g mask="url(#mask0)">
<path d="M53.5 2.43555C25.295 2.43555 2.43555 25.2952 2.43555 53.5004C2.43555 81.705 25.295 104.564 53.5 104.564C81.705 104.564 104.564 81.705 104.564 53.5004C104.564 25.2952 81.705 2.43555 53.5 2.43555ZM53.5 100.479C27.5966 100.479 6.5207 79.4032 6.5207 53.5004C6.5207 27.597 27.5966 6.5207 53.5 6.5207C79.4032 6.5207 100.48 27.5543 100.479 53.5004C100.479 79.4462 79.4032 100.479 53.5 100.479Z" fill="#425661"/>
</g>
</g>
<path d="M98.6562 43.1172C98.013 42.9987 97.3275 42.9395 96.5996 42.9395C94.7038 42.9395 93.0957 43.4727 91.7754 44.5391C90.472 45.5885 89.541 47.1204 88.9824 49.1348V68H85.9609V40.5273H88.9316L88.9824 44.8945C90.5905 41.6445 93.1719 40.0195 96.7266 40.0195C97.5729 40.0195 98.2415 40.1296 98.7324 40.3496L98.6562 43.1172ZM113.611 68.5078C111.275 68.5078 109.16 67.9323 107.264 66.7812C105.385 65.6302 103.921 64.0306 102.871 61.9824C101.822 59.9173 101.297 57.6068 101.297 55.0508V53.959C101.297 51.3184 101.805 48.9401 102.82 46.8242C103.853 44.7083 105.283 43.0495 107.111 41.8477C108.939 40.6289 110.92 40.0195 113.053 40.0195C116.387 40.0195 119.028 41.1621 120.975 43.4473C122.938 45.7155 123.92 48.8216 123.92 52.7656V54.4668H104.318V55.0508C104.318 58.1654 105.207 60.7637 106.984 62.8457C108.779 64.9108 111.03 65.9434 113.738 65.9434C115.363 65.9434 116.794 65.6471 118.029 65.0547C119.282 64.4622 120.416 63.5143 121.432 62.2109L123.336 63.6582C121.102 66.8913 117.86 68.5078 113.611 68.5078ZM113.053 42.6094C110.768 42.6094 108.838 43.4473 107.264 45.123C105.706 46.7988 104.758 49.0501 104.42 51.877H120.898V51.5469C120.814 48.9062 120.061 46.7565 118.639 45.0977C117.217 43.4388 115.355 42.6094 113.053 42.6094ZM147.178 68C146.873 67.1367 146.678 65.8587 146.594 64.166C145.527 65.554 144.165 66.6289 142.506 67.3906C140.864 68.1354 139.12 68.5078 137.275 68.5078C134.635 68.5078 132.493 67.7715 130.852 66.2988C129.227 64.8262 128.414 62.9642 128.414 60.7129C128.414 58.0384 129.523 55.9225 131.74 54.3652C133.975 52.8079 137.081 52.0293 141.059 52.0293H146.568V48.9062C146.568 46.9427 145.959 45.4023 144.74 44.2852C143.538 43.151 141.778 42.584 139.459 42.584C137.343 42.584 135.591 43.1257 134.203 44.209C132.815 45.2923 132.121 46.5957 132.121 48.1191L129.074 48.0938C129.074 45.9102 130.09 44.0228 132.121 42.4316C134.152 40.8236 136.649 40.0195 139.611 40.0195C142.675 40.0195 145.087 40.7897 146.848 42.3301C148.625 43.8535 149.539 45.9863 149.59 48.7285V61.7285C149.59 64.3861 149.869 66.375 150.428 67.6953V68H147.178ZM137.631 65.8164C139.662 65.8164 141.473 65.3255 143.064 64.3438C144.673 63.362 145.84 62.0501 146.568 60.4082V54.3652H141.135C138.105 54.3991 135.735 54.9577 134.025 56.041C132.316 57.1074 131.461 58.5801 131.461 60.459C131.461 61.9993 132.028 63.2773 133.162 64.293C134.313 65.3086 135.803 65.8164 137.631 65.8164ZM167.871 65.9434C169.987 65.9434 171.756 65.3509 173.178 64.166C174.617 62.9642 175.395 61.4154 175.514 59.5195H178.434C178.349 61.1953 177.824 62.7272 176.859 64.1152C175.895 65.4863 174.608 66.5612 173 67.3398C171.409 68.1185 169.699 68.5078 167.871 68.5078C164.266 68.5078 161.405 67.2552 159.289 64.75C157.19 62.2448 156.141 58.8763 156.141 54.6445V53.7305C156.141 51.0221 156.615 48.627 157.562 46.5449C158.51 44.4629 159.865 42.8548 161.625 41.7207C163.402 40.5866 165.476 40.0195 167.846 40.0195C170.859 40.0195 173.339 40.9167 175.285 42.7109C177.249 44.5052 178.298 46.8665 178.434 49.7949H175.514C175.378 47.6452 174.6 45.9102 173.178 44.5898C171.773 43.2695 169.995 42.6094 167.846 42.6094C165.104 42.6094 162.971 43.5996 161.447 45.5801C159.941 47.5605 159.188 50.3366 159.188 53.9082V54.7969C159.188 58.3008 159.941 61.0345 161.447 62.998C162.971 64.9616 165.112 65.9434 167.871 65.9434ZM189.25 33.4941V40.5273H194.938V43.0156H189.25V61.3223C189.25 62.8457 189.521 63.9798 190.062 64.7246C190.621 65.4694 191.544 65.8418 192.83 65.8418C193.338 65.8418 194.159 65.7572 195.293 65.5879L195.42 68.0762C194.624 68.3639 193.541 68.5078 192.17 68.5078C190.088 68.5078 188.573 67.9069 187.625 66.7051C186.677 65.4863 186.203 63.7005 186.203 61.3477V43.0156H181.15V40.5273H186.203V33.4941H189.25Z" fill="#425661"/>
<defs>
<clipPath id="clip0">
<rect width="105" height="105" fill="white" transform="translate(1 1)"/>
</clipPath>
</defs>
</svg>
